<svg width="158" height="33" viewBox="0 0 158 33" fill="none" xmlns="http://www.w3.org/2000/svg">
<path d="M16.525 0.813721L20.0528 11.6711H31.4689L22.2331 18.3814L25.7608 29.2388L16.525 22.5285L7.28913 29.2388L10.8169 18.3814L1.58106 11.6711H12.9972L16.525 0.813721Z" fill="#5383EC"/>
<path d="M47.9513 0.813599L51.479 11.671H62.8952L53.6593 18.3812L57.1871 29.2386L47.9513 22.5284L38.7154 29.2386L42.2432 18.3812L33.0073 11.671H44.4235L47.9513 0.813599Z" fill="#5383EC"/>
<path d="M79.3766 0.813599L82.9043 11.671H94.3205L85.0846 18.3812L88.6124 29.2386L79.3766 22.5284L70.1407 29.2386L73.6685 18.3812L64.4326 11.671H75.8488L79.3766 0.813599Z" fill="#5383EC"/>
<path d="M110.803 0.813599L114.331 11.671H125.747L116.511 18.3812L120.039 29.2386L110.803 22.5284L101.567 29.2386L105.095 18.3812L95.8594 11.671H107.276L110.803 0.813599Z" fill="#5383EC"/>
<path d="M142.229 0.813599L145.756 11.671H157.173L147.937 18.3812L151.464 29.2386L142.229 22.5284L132.993 29.2386L136.521 18.3812L127.285 11.671H138.701L142.229 0.813599Z" fill="#5383EC"/>
</svg>
